<svg width="188" height="109" viewBox="0 0 188 109" fill="none" xmlns="http://www.w3.org/2000/svg">
<path d="M155.947 65.0362L92.9867 78.6858L80.883 71.6978L143.844 58.0481L155.947 65.0362Z" fill="white"/>
<path d="M106.059 47.5423L75.6446 65.1018L65.7885 59.4114L84.0282 48.8807L56.7393 54.1869L48.7853 49.5946L57.9616 33.7811L39.6785 44.3368L29.8225 38.6464L60.2365 21.0869L71.8793 27.8089L62.1781 46.5211L94.4733 40.8536L106.059 47.5423Z" fill="white"/>
<path d="M10.9581 31.3267L18.3 14.4346L47.558 10.1958L59.1639 16.8964L29.8519 21.1041L22.564 38.0274L10.9581 31.3267Z" fill="white"/>
<path d="M169.456 80.5735L162.536 97.7089L132.856 101.704L120.804 94.7461L150.539 90.7829L157.404 73.6151L169.456 80.5735Z" fill="white"/>
</svg>
