<svg width="20" height="20" viewBox="0 0 20 20" fill="none" xmlns="http://www.w3.org/2000/svg">
<g clip-path="url(#clip0_191_346)">
<path d="M16.6663 0H3.33375C1.5 0 0 1.5 0 3.33375V16.6663C0 18.5 1.5 20 3.33375 20H16.6663C18.5013 20 20 18.5 20 16.6663V3.33375C20 1.5 18.5013 0 16.6663 0ZM5 5H15C15.1788 5 15.3513 5.03875 15.5113 5.11L10 11.5387L4.48875 5.11C4.6475 5.0375 4.82125 5 5 5ZM3.75 13.75V6.25C3.75 6.22375 3.75125 6.1975 3.7525 6.17125L7.4175 10.4475L3.7925 14.0725C3.76375 13.9688 3.75 13.86 3.75 13.75ZM15 15H5C4.89 15 4.78125 14.985 4.6775 14.9575L8.235 11.4L10.0013 13.46L11.7675 11.4L15.325 14.9575C15.2213 14.9862 15.1125 15 15.0025 15H15ZM16.25 13.75C16.25 13.86 16.235 13.9688 16.2075 14.0725L12.5825 10.4475L16.2475 6.17125C16.2488 6.1975 16.25 6.22375 16.25 6.25V13.75Z" fill="white"/>
</g>
<defs>
<clipPath id="clip0_191_346">
<rect width="20" height="20" rx="6.6" fill="white"/>
</clipPath>
</defs>
</svg>
