<svg width="30" height="30" viewBox="0 0 30 30" fill="none" xmlns="http://www.w3.org/2000/svg">
<g clip-path="url(#clip0_191_342)">
<path d="M27.7817 0.000211841H2.21831C1.93095 -0.0037947 1.64563 0.0490661 1.37862 0.155776C1.11162 0.262485 0.868164 0.420953 0.662169 0.622129C0.456175 0.823305 0.291672 1.06325 0.178056 1.32826C0.0644402 1.59326 0.00393621 1.87815 0 2.16663V28.1334C0.00393621 28.4219 0.0644402 28.7067 0.178056 28.9717C0.291672 29.2367 0.456175 29.4767 0.662169 29.6779C0.868164 29.879 1.11162 30.0375 1.37862 30.1442C1.64563 30.2509 1.93095 30.3038 2.21831 30.2998H27.7817C28.069 30.3038 28.3544 30.2509 28.6214 30.1442C28.8884 30.0375 29.1318 29.879 29.3378 29.6779C29.5438 29.4767 29.7083 29.2367 29.8219 28.9717C29.9356 28.7067 29.9961 28.4219 30 28.1334V2.16663C29.9961 1.87815 29.9356 1.59326 29.8219 1.32826C29.7083 1.06325 29.5438 0.823305 29.3378 0.622129C29.1318 0.420953 28.8884 0.262485 28.6214 0.155776C28.3544 0.0490661 28.069 -0.0037947 27.7817 0.000211841ZM9.0996 25.361H4.57243V11.7261H9.0996V25.361ZM6.83602 9.81727C6.21166 9.81727 5.61288 9.56828 5.1714 9.12506C4.72991 8.68184 4.48189 8.08071 4.48189 7.45391C4.48189 6.8271 4.72991 6.22597 5.1714 5.78275C5.61288 5.33954 6.21166 5.09054 6.83602 5.09054C7.16755 5.05279 7.50328 5.08577 7.82124 5.18732C8.1392 5.28887 8.4322 5.4567 8.68107 5.67981C8.92994 5.90292 9.12906 6.17629 9.2654 6.48202C9.40174 6.78775 9.47221 7.11894 9.47221 7.45391C9.47221 7.78888 9.40174 8.12006 9.2654 8.42579C9.12906 8.73152 8.92994 9.00489 8.68107 9.22801C8.4322 9.45112 8.1392 9.61894 7.82124 9.72049C7.50328 9.82204 7.16755 9.85502 6.83602 9.81727ZM25.4276 25.361H20.9004V18.0436C20.9004 16.2105 20.2515 15.0137 18.6066 15.0137C18.0976 15.0174 17.6019 15.1777 17.1864 15.473C16.7708 15.7682 16.4555 16.1842 16.2827 16.665C16.1646 17.0211 16.1134 17.3961 16.1318 17.7709V25.3458H11.6046C11.6046 25.3458 11.6046 12.9533 11.6046 11.711H16.1318V13.635C16.5431 12.9186 17.1412 12.3284 17.8618 11.9279C18.5825 11.5275 19.3982 11.332 20.2213 11.3626C23.2394 11.3626 25.4276 13.3169 25.4276 17.5134V25.361Z" fill="white"/>
</g>
<defs>
<clipPath id="clip0_191_342">
<rect width="30" height="30" rx="9.9" fill="white"/>
</clipPath>
</defs>
</svg>
